<?xml version="1.0" encoding="utf-8"?>
<!-- Generator: Adobe Illustrator 25.2.1, SVG Export Plug-In . SVG Version: 6.00 Build 0)  -->
<svg version="1.1" id="Слой_1" xmlns="http://www.w3.org/2000/svg" xmlns:xlink="http://www.w3.org/1999/xlink" x="0px" y="0px"
	 viewBox="0 0 114.3 25.66" style="enable-background:new 0 0 114.3 25.66;" xml:space="preserve">
<style type="text/css">
	.st0{fill:#455044;}
	.st1{fill:#65AE45;}
	.st2{fill:url(#SVGID_1_);}
</style>
<g>
	<path class="st0" d="M30.78,0.88v15.97h-4.26v-6.09h-5.98v6.09h-4.26V0.88h4.26v6.11h5.98c0,0,0-1.22,0-3.83
		C26.52,0.54,30.78,0.88,30.78,0.88z"/>
	<path class="st0" d="M46.59,0.88v9.88c0,1.2-0.21,2.21-0.63,3.03c-0.42,0.82-0.97,1.48-1.66,1.98c-0.68,0.5-1.46,0.86-2.32,1.08
		c-0.87,0.22-1.75,0.33-2.63,0.33c-0.89,0-1.77-0.11-2.63-0.33c-0.87-0.22-1.64-0.58-2.32-1.08c-0.68-0.5-1.24-1.16-1.66-1.98
		c-0.42-0.82-0.63-1.83-0.63-3.03V0.88h4.26v9.65c0,1.08,0.27,1.83,0.82,2.26c0.54,0.43,1.27,0.64,2.17,0.64
		c0.9,0,1.63-0.21,2.17-0.64c0.54-0.42,0.82-1.18,0.82-2.26c0,0,0-4.25,0-7.2C42.34,0.37,46.59,0.88,46.59,0.88z"/>
	<path class="st0" d="M1.14,5.66c0.31-0.98,0.79-1.83,1.43-2.53c0.64-0.7,1.45-1.26,2.44-1.65C6,1.07,7.16,0.88,8.5,0.88h5.97
		c0,0,0.48,3.7-2.7,3.7c-3,0-3.27-0.05-3.27-0.05c-1.2,0-2.12,0.35-2.78,1.04c-0.66,0.69-0.99,1.79-0.99,3.3
		c0,1.5,0.33,2.6,0.99,3.29c0.65,0.69,1.58,1.04,2.78,1.04h2.01l1.45-0.04c0.96,0.05,2.31,1.1,2.51,3.69c-1.25,0-5.97,0-5.97,0
		c-1.34,0-2.5-0.2-3.49-0.59c-0.99-0.39-1.8-0.95-2.44-1.65c-0.64-0.71-1.12-1.55-1.43-2.52c-0.32-0.97-0.47-2.05-0.47-3.21
		C0.67,7.7,0.83,6.64,1.14,5.66z"/>
	<path class="st0" d="M63.66,8.86c0-1.11,0.18-2.17,0.54-3.17c0.36-1,0.9-1.89,1.62-2.66c0.72-0.77,1.62-1.38,2.69-1.83
		c1.07-0.45,2.33-0.67,3.77-0.67c1.44,0,2.7,0.22,3.77,0.67c1.08,0.45,1.97,1.06,2.69,1.83c0.72,0.77,1.26,1.65,1.62,2.66
		c0.36,1,0.54,2.06,0.54,3.17c0,1.11-0.18,2.17-0.54,3.17c-0.36,1-0.9,1.89-1.62,2.66c-0.72,0.77-1.62,1.38-2.69,1.83
		c-1.07,0.45-2.33,0.67-3.77,0.67c-1.44,0-2.7-0.22-3.77-0.67c-1.07-0.45-1.97-1.06-2.69-1.83c-0.72-0.77-1.26-1.65-1.62-2.66
		C63.84,11.03,63.66,9.97,63.66,8.86z M76.55,8.86c0-0.64-0.09-1.23-0.28-1.77c-0.18-0.54-0.45-1.01-0.8-1.41
		c-0.35-0.4-0.8-0.72-1.34-0.94c-0.54-0.22-1.15-0.33-1.84-0.33c-0.69,0-1.3,0.11-1.84,0.33c-0.54,0.22-0.98,0.53-1.33,0.94
		c-0.35,0.4-0.62,0.87-0.81,1.41c-0.18,0.54-0.27,1.13-0.27,1.77c0,0.64,0.09,1.23,0.27,1.77c0.19,0.54,0.45,1.01,0.81,1.41
		c0.35,0.4,0.8,0.72,1.33,0.94c0.54,0.22,1.15,0.33,1.84,0.33c0.69,0,1.3-0.11,1.84-0.33c0.54-0.22,0.93-0.59,1.34-0.94
		C75.47,12.04,76.59,10.99,76.55,8.86z"/>
	<path class="st0" d="M86.71,16.84L80.66,0.88h4.6l3.63,10.95c0,0,2.47-7.54,2.98-8.99c1.02-2.72,5.25-1.96,5.25-1.96l-6.05,15.97
		H86.71z"/>
	<path class="st0" d="M96.38,8.86c0-1.11,0.18-2.17,0.54-3.17c0.36-1,0.9-1.89,1.62-2.66c0.72-0.77,1.62-1.38,2.69-1.83
		c1.07-0.45,2.33-0.67,3.77-0.67c1.45,0,2.7,0.22,3.78,0.67c1.08,0.45,1.97,1.06,2.69,1.83c0.72,0.77,1.26,1.65,1.62,2.66
		c0.36,1,0.54,2.06,0.54,3.17c0,1.11-0.18,2.17-0.54,3.17c-0.36,1-0.9,1.89-1.62,2.66c-0.72,0.77-1.62,1.38-2.69,1.83
		c-1.07,0.45-2.33,0.67-3.78,0.67c-1.44,0-2.7-0.22-3.77-0.67c-1.08-0.45-1.97-1.06-2.69-1.83c-0.72-0.77-1.26-1.65-1.62-2.66
		C96.56,11.03,96.38,9.97,96.38,8.86z M109.26,8.86c0-0.64-0.09-1.23-0.28-1.77c-0.18-0.54-0.45-1.01-0.8-1.41
		c-0.35-0.4-0.8-0.72-1.33-0.94c-0.54-0.22-1.15-0.33-1.85-0.33c-0.69,0-1.3,0.11-1.84,0.33c-0.54,0.22-0.98,0.53-1.34,0.94
		c-0.35,0.4-0.62,0.87-0.8,1.41c-0.18,0.54-0.28,1.13-0.28,1.77c0,0.64,0.09,1.23,0.28,1.77c0.18,0.54,0.45,1.01,0.8,1.41
		c0.35,0.4,0.8,0.72,1.34,0.94c0.54,0.22,1.15,0.33,1.84,0.33c0.69,0,1.31-0.11,1.85-0.33c0.53-0.22,0.98-0.53,1.33-0.94
		c0.35-0.4,0.62-0.87,0.8-1.41C109.17,10.09,109.26,9.5,109.26,8.86z"/>
	<path class="st1" d="M62.06,5.66c-0.34-0.98-0.85-1.83-1.54-2.53c-0.69-0.7-1.56-1.26-2.63-1.65c-1.06-0.4-2.31-0.59-3.75-0.59
		h-6.42l0.03,3.7v8.63c0,0,4.17-1.04,4.17-4.49c0-1.52,0.03-3.29,0.05-4.18l2.18-0.02c1.29,0,2.28,0.35,2.99,1.04
		c0.71,0.69,1.06,1.79,1.06,3.3c0,1.5-0.35,2.6-1.06,3.29c-0.71,0.69-1.7,1.04-2.99,1.04h-2.16c0,0-2.57,0.75-4.26,3.65
		c1.34,0,6.42,0,6.42,0c1.44,0,2.69-0.2,3.75-0.59c1.06-0.39,1.93-0.95,2.63-1.65c0.69-0.71,1.2-1.55,1.54-2.52
		c0.34-0.97,0.51-2.05,0.51-3.21C62.57,7.7,62.4,6.64,62.06,5.66z"/>
	<linearGradient id="SVGID_1_" gradientUnits="userSpaceOnUse" x1="47.4523" y1="15.9838" x2="63.0839" y2="10.9048">
		<stop  offset="0" style="stop-color:#375A2B;stop-opacity:0.62"/>
		<stop  offset="0.7152" style="stop-color:#65AE45;stop-opacity:0.62"/>
		<stop  offset="0.9879" style="stop-color:#65AE45;stop-opacity:0.23"/>
	</linearGradient>
	<path class="st2" d="M47.73,16.84l6.91-0.03c0,0,4.23,0.09,6.41-2.88c0,0,1.2-1.61,1.42-3.63c0.22-2.02,0.03-0.13,0.03-0.13
		s-1.77,0.32-4.31-1.31c0,0,0.27,2.45-1.6,3.81c0,0-1.42,0.83-4.61,0.52C51.99,13.19,49.71,13.77,47.73,16.84z"/>
</g>
<g>
	<path class="st0" d="M3.87,24.85c-0.1,0.03-0.52,0.1-1.02,0.1c-0.77,0-1.82-0.38-1.82-1.97v-0.95c0-1.62,1.05-1.97,1.82-1.97
		c0.5,0,0.92,0.08,1.02,0.1c0.08,0.03,0.14,0.06,0.14,0.15v0.43c0,0.08-0.03,0.13-0.13,0.13c0,0-0.01,0-0.01,0
		c-0.23-0.02-0.66-0.05-1-0.05c-0.54,0-0.93,0.29-0.93,1.2v0.95c0,0.9,0.39,1.2,0.93,1.2c0.34,0,0.78-0.03,1-0.05
		c0.01,0,0.01,0,0.01,0c0.1,0,0.13,0.06,0.13,0.14v0.43C4.01,24.8,3.95,24.83,3.87,24.85z"/>
	<path class="st0" d="M6.49,24.96c-1.06,0-1.84-0.59-1.84-2.01v-0.87c0-1.42,0.77-2.01,1.84-2.01s1.83,0.59,1.83,2.01v0.87
		C8.32,24.36,7.55,24.96,6.49,24.96z M7.42,22.08c0-0.85-0.3-1.23-0.93-1.23c-0.63,0-0.93,0.38-0.93,1.23v0.87
		c0,0.85,0.3,1.23,0.93,1.23c0.63,0,0.93-0.38,0.93-1.23V22.08z"/>
	<path class="st0" d="M13.18,24.91h-0.65c-0.06,0-0.1-0.06-0.1-0.13v-2.99c0-0.04-0.01-0.06-0.02-0.06c-0.01,0-0.02,0.02-0.03,0.04
		l-0.62,1.23c-0.04,0.07-0.12,0.11-0.21,0.11H10.9c-0.08,0-0.17-0.04-0.21-0.11l-0.62-1.23c-0.01-0.02-0.03-0.04-0.03-0.04
		c-0.01,0-0.02,0.02-0.02,0.06v2.99c0,0.06-0.04,0.13-0.1,0.13H9.27c-0.06,0-0.11-0.03-0.11-0.1v-4.43c0-0.14,0.12-0.26,0.26-0.26
		h0.53c0.1,0,0.19,0.06,0.24,0.15l0.97,1.97c0.03,0.06,0.05,0.09,0.07,0.09c0.03,0,0.04-0.03,0.07-0.09l0.97-1.97
		c0.04-0.09,0.14-0.15,0.24-0.15h0.53c0.14,0,0.26,0.12,0.26,0.26v4.43C13.29,24.87,13.24,24.91,13.18,24.91z"/>
	<path class="st0" d="M15.73,23.12c-0.17,0-0.43-0.02-0.57-0.03v1.68c0,0.07-0.05,0.13-0.12,0.13h-0.64c-0.07,0-0.13-0.06-0.13-0.13
		v-4.43c0-0.13,0.08-0.17,0.21-0.19c0.33-0.05,0.79-0.08,1.26-0.08c0.99,0,1.85,0.35,1.85,1.49v0.06
		C17.58,22.76,16.72,23.12,15.73,23.12z M16.69,21.56c0-0.54-0.32-0.75-0.97-0.75c-0.14,0-0.46,0.01-0.57,0.03v1.53
		c0.1,0.01,0.46,0.02,0.57,0.02c0.7,0,0.97-0.26,0.97-0.77V21.56z"/>
	<path class="st0" d="M20.87,24.87c-0.19,0.05-0.75,0.09-1.09,0.09c-0.84,0-1.49-0.23-1.49-1.32v-3.39c0-0.07,0.06-0.13,0.13-0.13
		h0.64c0.07,0,0.13,0.06,0.13,0.13v3.39c0,0.42,0.13,0.55,0.5,0.55h1.18c0.07,0,0.13,0.06,0.13,0.13v0.41
		C21,24.82,20.97,24.85,20.87,24.87z"/>
	<path class="st0" d="M24.33,24.87c-0.21,0.03-0.46,0.09-1.22,0.09c-0.84,0-1.49-0.23-1.49-1.32v-2.25c0-1.09,0.65-1.32,1.49-1.32
		c0.77,0,1.02,0.06,1.22,0.09c0.1,0.01,0.13,0.05,0.13,0.14v0.41c0,0.07-0.06,0.13-0.13,0.13h-1.31c-0.37,0-0.51,0.13-0.51,0.55v0.7
		h1.75c0.07,0,0.13,0.06,0.13,0.13v0.46c0,0.07-0.06,0.13-0.13,0.13H22.5v0.83c0,0.42,0.14,0.55,0.51,0.55h1.31
		c0.07,0,0.13,0.06,0.13,0.13v0.41C24.46,24.82,24.42,24.85,24.33,24.87z"/>
	<path class="st0" d="M28.78,24.91h-0.76c-0.07,0-0.12-0.05-0.17-0.13l-0.95-1.52l-0.89,1.52c-0.04,0.08-0.1,0.13-0.17,0.13h-0.7
		c-0.07,0-0.1-0.04-0.1-0.08c0-0.01,0.01-0.03,0.01-0.04l1.37-2.29l-1.41-2.25C25.01,20.23,25,20.22,25,20.21
		c0-0.05,0.04-0.08,0.1-0.08h0.76c0.07,0,0.13,0.06,0.17,0.12l0.94,1.5l0.87-1.5c0.03-0.06,0.1-0.12,0.17-0.12h0.7
		c0.06,0,0.1,0.04,0.1,0.08c0,0.01-0.01,0.03-0.01,0.04l-1.35,2.27l1.42,2.27c0.01,0.02,0.01,0.03,0.01,0.05
		C28.88,24.87,28.85,24.91,28.78,24.91z"/>
	<path class="st0" d="M32.33,24.96c-0.48,0-0.83-0.04-1.14-0.12c-0.06-0.01-0.12-0.06-0.12-0.13v-0.46c0-0.07,0.06-0.12,0.12-0.12
		c0.01,0,0.01,0,0.01,0c0.26,0.03,0.9,0.06,1.14,0.06c0.57,0,0.75-0.21,0.75-0.58c0-0.25-0.12-0.38-0.55-0.63l-0.85-0.51
		c-0.6-0.35-0.76-0.73-0.76-1.18c0-0.71,0.41-1.22,1.61-1.22c0.43,0,1.02,0.06,1.24,0.12c0.06,0.01,0.12,0.06,0.12,0.12v0.48
		c0,0.06-0.05,0.12-0.11,0.12c-0.01,0-0.01,0-0.01,0c-0.42-0.04-0.85-0.06-1.27-0.06c-0.48,0-0.68,0.17-0.68,0.46
		c0,0.21,0.11,0.34,0.53,0.57l0.77,0.43c0.71,0.39,0.9,0.8,0.9,1.31C34.02,24.26,33.61,24.96,32.33,24.96z"/>
	<path class="st0" d="M38.1,20.27l-0.98,2.23c-0.12,0.28-0.25,0.41-0.39,0.47v1.8c0,0.07-0.05,0.13-0.12,0.13h-0.64
		c-0.07,0-0.12-0.06-0.12-0.13v-1.8c-0.14-0.06-0.27-0.19-0.39-0.47l-0.97-2.23c-0.01-0.02-0.01-0.04-0.01-0.05
		c0-0.05,0.04-0.1,0.1-0.1h0.71c0.06,0,0.1,0.05,0.12,0.1l0.77,1.92c0.04,0.11,0.08,0.13,0.11,0.13c0.03,0,0.07-0.02,0.12-0.13
		l0.77-1.92c0.02-0.05,0.06-0.1,0.12-0.1H38c0.06,0,0.11,0.04,0.11,0.1C38.11,20.24,38.1,20.25,38.1,20.27z"/>
	<path class="st0" d="M39.96,24.96c-0.48,0-0.83-0.04-1.14-0.12c-0.06-0.01-0.12-0.06-0.12-0.13v-0.46c0-0.07,0.06-0.12,0.12-0.12
		c0.01,0,0.01,0,0.01,0c0.26,0.03,0.9,0.06,1.14,0.06c0.57,0,0.75-0.21,0.75-0.58c0-0.25-0.12-0.38-0.55-0.63l-0.85-0.51
		c-0.6-0.35-0.76-0.73-0.76-1.18c0-0.71,0.41-1.22,1.61-1.22c0.43,0,1.02,0.06,1.24,0.12c0.06,0.01,0.12,0.06,0.12,0.12v0.48
		c0,0.06-0.05,0.12-0.11,0.12c-0.01,0-0.01,0-0.01,0c-0.42-0.04-0.85-0.06-1.27-0.06c-0.48,0-0.68,0.17-0.68,0.46
		c0,0.21,0.11,0.34,0.53,0.57l0.77,0.43c0.71,0.39,0.9,0.8,0.9,1.31C41.65,24.26,41.25,24.96,39.96,24.96z"/>
	<path class="st0" d="M45.38,20.87h-1.13v3.91c0,0.07-0.06,0.13-0.13,0.13h-0.64c-0.07,0-0.13-0.06-0.13-0.13v-3.91h-1.13
		c-0.07,0-0.13-0.04-0.13-0.12v-0.51c0-0.07,0.06-0.12,0.13-0.12h3.15c0.07,0,0.13,0.05,0.13,0.12v0.51
		C45.51,20.82,45.45,20.87,45.38,20.87z"/>
	<path class="st0" d="M48.87,24.87c-0.21,0.03-0.46,0.09-1.22,0.09c-0.84,0-1.49-0.23-1.49-1.32v-2.25c0-1.09,0.65-1.32,1.49-1.32
		c0.77,0,1.02,0.06,1.22,0.09c0.1,0.01,0.13,0.05,0.13,0.14v0.41c0,0.07-0.06,0.13-0.13,0.13h-1.31c-0.37,0-0.51,0.13-0.51,0.55v0.7
		h1.75c0.07,0,0.13,0.06,0.13,0.13v0.46c0,0.07-0.06,0.13-0.13,0.13h-1.75v0.83c0,0.42,0.14,0.55,0.51,0.55h1.31
		c0.07,0,0.13,0.06,0.13,0.13v0.41C49,24.82,48.96,24.85,48.87,24.87z"/>
	<path class="st0" d="M53.89,24.91h-0.65c-0.06,0-0.1-0.06-0.1-0.13v-2.99c0-0.04-0.01-0.06-0.02-0.06c-0.01,0-0.02,0.02-0.03,0.04
		l-0.62,1.23c-0.04,0.07-0.12,0.11-0.21,0.11h-0.65c-0.08,0-0.17-0.04-0.21-0.11l-0.62-1.23c-0.01-0.02-0.03-0.04-0.03-0.04
		c-0.01,0-0.02,0.02-0.02,0.06v2.99c0,0.06-0.04,0.13-0.1,0.13h-0.65c-0.06,0-0.11-0.03-0.11-0.1v-4.43c0-0.14,0.12-0.26,0.26-0.26
		h0.53c0.1,0,0.19,0.06,0.24,0.15l0.97,1.97c0.03,0.06,0.04,0.09,0.07,0.09s0.04-0.03,0.07-0.09l0.97-1.97
		c0.04-0.09,0.14-0.15,0.24-0.15h0.53c0.14,0,0.26,0.12,0.26,0.26v4.43C54,24.87,53.95,24.91,53.89,24.91z"/>
	<path class="st0" d="M56.17,24.96c-0.48,0-0.83-0.04-1.14-0.12c-0.06-0.01-0.12-0.06-0.12-0.13v-0.46c0-0.07,0.06-0.12,0.12-0.12
		c0.01,0,0.01,0,0.01,0c0.26,0.03,0.9,0.06,1.14,0.06c0.57,0,0.75-0.21,0.75-0.58c0-0.25-0.12-0.38-0.55-0.63l-0.85-0.51
		c-0.6-0.35-0.76-0.73-0.76-1.18c0-0.71,0.41-1.22,1.61-1.22c0.43,0,1.02,0.06,1.24,0.12c0.06,0.01,0.12,0.06,0.12,0.12v0.48
		c0,0.06-0.05,0.12-0.11,0.12c-0.01,0-0.01,0-0.01,0c-0.42-0.04-0.85-0.06-1.27-0.06c-0.48,0-0.68,0.17-0.68,0.46
		c0,0.21,0.11,0.34,0.53,0.57l0.77,0.43c0.71,0.39,0.9,0.8,0.9,1.31C57.86,24.26,57.46,24.96,56.17,24.96z"/>
	<path class="st0" d="M61.01,24.91h-0.64c-0.07,0-0.13-0.06-0.13-0.13v-4.53c0-0.07,0.06-0.12,0.13-0.12h0.64
		c0.07,0,0.13,0.05,0.13,0.12v4.53C61.14,24.85,61.08,24.91,61.01,24.91z"/>
	<path class="st0" d="M66.13,24.91h-0.65c-0.06,0-0.1-0.06-0.1-0.13v-2.99c0-0.04-0.01-0.06-0.02-0.06c-0.01,0-0.02,0.02-0.03,0.04
		l-0.62,1.23c-0.04,0.07-0.12,0.11-0.21,0.11h-0.65c-0.08,0-0.17-0.04-0.21-0.11l-0.62-1.23c-0.01-0.02-0.03-0.04-0.03-0.04
		c-0.01,0-0.02,0.02-0.02,0.06v2.99c0,0.06-0.04,0.13-0.1,0.13h-0.65c-0.06,0-0.11-0.03-0.11-0.1v-4.43c0-0.14,0.12-0.26,0.26-0.26
		h0.53c0.1,0,0.19,0.06,0.24,0.15l0.97,1.97c0.03,0.06,0.04,0.09,0.07,0.09s0.04-0.03,0.07-0.09l0.97-1.97
		c0.04-0.09,0.14-0.15,0.24-0.15h0.53c0.14,0,0.26,0.12,0.26,0.26v4.43C66.24,24.87,66.19,24.91,66.13,24.91z"/>
	<path class="st0" d="M68.68,23.12c-0.17,0-0.42-0.02-0.57-0.03v1.68c0,0.07-0.05,0.13-0.12,0.13h-0.64c-0.07,0-0.13-0.06-0.13-0.13
		v-4.43c0-0.13,0.08-0.17,0.21-0.19c0.33-0.05,0.79-0.08,1.26-0.08c0.99,0,1.85,0.35,1.85,1.49v0.06
		C70.53,22.76,69.67,23.12,68.68,23.12z M69.64,21.56c0-0.54-0.32-0.75-0.97-0.75c-0.14,0-0.46,0.01-0.57,0.03v1.53
		c0.1,0.01,0.46,0.02,0.57,0.02c0.7,0,0.97-0.26,0.97-0.77V21.56z"/>
	<path class="st0" d="M73.82,24.87c-0.19,0.05-0.75,0.09-1.09,0.09c-0.84,0-1.49-0.23-1.49-1.32v-3.39c0-0.07,0.06-0.13,0.13-0.13
		h0.64c0.07,0,0.13,0.06,0.13,0.13v3.39c0,0.42,0.13,0.55,0.5,0.55h1.19c0.07,0,0.13,0.06,0.13,0.13v0.41
		C73.95,24.82,73.92,24.85,73.82,24.87z"/>
	<path class="st0" d="M77.28,24.87c-0.21,0.03-0.46,0.09-1.22,0.09c-0.84,0-1.49-0.23-1.49-1.32v-2.25c0-1.09,0.65-1.32,1.49-1.32
		c0.77,0,1.02,0.06,1.22,0.09c0.1,0.01,0.13,0.05,0.13,0.14v0.41c0,0.07-0.06,0.13-0.13,0.13h-1.31c-0.37,0-0.51,0.13-0.51,0.55v0.7
		h1.75c0.07,0,0.13,0.06,0.13,0.13v0.46c0,0.07-0.06,0.13-0.13,0.13h-1.75v0.83c0,0.42,0.14,0.55,0.51,0.55h1.31
		c0.07,0,0.13,0.06,0.13,0.13v0.41C77.4,24.82,77.37,24.85,77.28,24.87z"/>
	<path class="st0" d="M82.3,24.91h-0.65c-0.06,0-0.1-0.06-0.1-0.13v-2.99c0-0.04-0.01-0.06-0.02-0.06c-0.01,0-0.02,0.02-0.03,0.04
		l-0.62,1.23c-0.04,0.07-0.12,0.11-0.21,0.11h-0.65c-0.08,0-0.17-0.04-0.21-0.11l-0.62-1.23c-0.01-0.02-0.03-0.04-0.03-0.04
		c-0.01,0-0.02,0.02-0.02,0.06v2.99c0,0.06-0.04,0.13-0.1,0.13h-0.65c-0.06,0-0.11-0.03-0.11-0.1v-4.43c0-0.14,0.12-0.26,0.26-0.26
		h0.53c0.1,0,0.19,0.06,0.24,0.15l0.97,1.97c0.03,0.06,0.04,0.09,0.07,0.09s0.04-0.03,0.07-0.09l0.97-1.97
		c0.04-0.09,0.14-0.15,0.24-0.15h0.53c0.14,0,0.26,0.12,0.26,0.26v4.43C82.41,24.87,82.36,24.91,82.3,24.91z"/>
	<path class="st0" d="M86.09,24.87c-0.21,0.03-0.46,0.09-1.22,0.09c-0.84,0-1.49-0.23-1.49-1.32v-2.25c0-1.09,0.65-1.32,1.49-1.32
		c0.77,0,1.02,0.06,1.22,0.09c0.1,0.01,0.13,0.05,0.13,0.14v0.41c0,0.07-0.06,0.13-0.13,0.13h-1.31c-0.37,0-0.51,0.13-0.51,0.55v0.7
		h1.75c0.07,0,0.13,0.06,0.13,0.13v0.46c0,0.07-0.06,0.13-0.13,0.13h-1.75v0.83c0,0.42,0.14,0.55,0.51,0.55h1.31
		c0.07,0,0.13,0.06,0.13,0.13v0.41C86.21,24.82,86.18,24.85,86.09,24.87z"/>
	<path class="st0" d="M90.45,24.91H89.8c-0.16,0-0.29,0-0.39-0.23l-1.43-3.14c-0.02-0.04-0.04-0.05-0.06-0.05s-0.03,0.01-0.03,0.05
		v3.24c0,0.07-0.05,0.13-0.12,0.13h-0.55c-0.07,0-0.13-0.06-0.13-0.13v-4.4c0-0.14,0.12-0.26,0.26-0.26h0.7
		c0.14,0,0.21,0.04,0.28,0.21l1.5,3.31c0.01,0.03,0.03,0.05,0.05,0.05c0.01,0,0.03-0.02,0.03-0.06v-3.39c0-0.07,0.05-0.12,0.12-0.12
		h0.55c0.07,0,0.12,0.05,0.12,0.12v4.4C90.7,24.79,90.59,24.91,90.45,24.91z"/>
	<path class="st0" d="M94.63,20.87H93.5v3.91c0,0.07-0.06,0.13-0.13,0.13h-0.64c-0.07,0-0.13-0.06-0.13-0.13v-3.91h-1.13
		c-0.07,0-0.13-0.04-0.13-0.12v-0.51c0-0.07,0.06-0.12,0.13-0.12h3.15c0.07,0,0.13,0.05,0.13,0.12v0.51
		C94.76,20.82,94.7,20.87,94.63,20.87z"/>
	<path class="st0" d="M98.84,24.91h-0.68c-0.06,0-0.11-0.05-0.12-0.11l-0.3-1.22h-1.48l-0.3,1.22c-0.01,0.06-0.06,0.11-0.12,0.11
		h-0.68c-0.06,0-0.12-0.04-0.12-0.11c0-0.01,0.01-0.02,0.01-0.03l1.06-4.04c0.16-0.6,0.62-0.66,0.9-0.66c0.28,0,0.74,0.06,0.89,0.66
		l1.06,4.04c0,0.01,0.01,0.03,0.01,0.03C98.96,24.86,98.9,24.91,98.84,24.91z M97.1,20.93c-0.02-0.08-0.04-0.1-0.1-0.1
		s-0.08,0.03-0.1,0.1l-0.46,1.91h1.13L97.1,20.93z"/>
	<path class="st0" d="M102.52,20.87h-1.13v3.91c0,0.07-0.06,0.13-0.13,0.13h-0.64c-0.07,0-0.13-0.06-0.13-0.13v-3.91h-1.13
		c-0.07,0-0.13-0.04-0.13-0.12v-0.51c0-0.07,0.06-0.12,0.13-0.12h3.15c0.07,0,0.13,0.05,0.13,0.12v0.51
		C102.65,20.82,102.59,20.87,102.52,20.87z"/>
	<path class="st0" d="M104.06,24.91h-0.64c-0.07,0-0.13-0.06-0.13-0.13v-4.53c0-0.07,0.06-0.12,0.13-0.12h0.64
		c0.07,0,0.13,0.05,0.13,0.12v4.53C104.19,24.85,104.13,24.91,104.06,24.91z"/>
	<path class="st0" d="M106.86,24.96c-1.06,0-1.83-0.59-1.83-2.01v-0.87c0-1.42,0.77-2.01,1.83-2.01s1.83,0.59,1.83,2.01v0.87
		C108.69,24.36,107.92,24.96,106.86,24.96z M107.79,22.08c0-0.85-0.3-1.23-0.93-1.23s-0.93,0.38-0.93,1.23v0.87
		c0,0.85,0.3,1.23,0.93,1.23s0.93-0.38,0.93-1.23V22.08z"/>
	<path class="st0" d="M112.89,24.91h-0.65c-0.16,0-0.29,0-0.39-0.23l-1.43-3.14c-0.02-0.04-0.04-0.05-0.06-0.05
		s-0.03,0.01-0.03,0.05v3.24c0,0.07-0.05,0.13-0.12,0.13h-0.55c-0.07,0-0.13-0.06-0.13-0.13v-4.4c0-0.14,0.12-0.26,0.26-0.26h0.7
		c0.14,0,0.21,0.04,0.28,0.21l1.5,3.31c0.01,0.03,0.03,0.05,0.05,0.05c0.01,0,0.03-0.02,0.03-0.06v-3.39c0-0.07,0.05-0.12,0.12-0.12
		h0.55c0.07,0,0.12,0.05,0.12,0.12v4.4C113.15,24.79,113.04,24.91,112.89,24.91z"/>
</g>
</svg>
