<svg version="1.1" id="Слой_1" xmlns="http://www.w3.org/2000/svg" x="0" y="0" viewBox="0 0 114.3 25.66" xml:space="preserve"><style>.st0{fill:#455044}</style><path class="st0" d="M30.78.88v15.97h-4.26v-6.09h-5.98v6.09h-4.26V.88h4.26v6.11h5.98V3.16c0-2.62 4.26-2.28 4.26-2.28zm15.81 0v9.88c0 1.2-.21 2.21-.63 3.03-.42.82-.97 1.48-1.66 1.98-.68.5-1.46.86-2.32 1.08-.87.22-1.75.33-2.63.33-.89 0-1.77-.11-2.63-.33-.87-.22-1.64-.58-2.32-1.08a5.57 5.57 0 01-1.66-1.98c-.42-.82-.63-1.83-.63-3.03V.88h4.26v9.65c0 1.08.27 1.83.82 2.26.54.43 1.27.64 2.17.64.9 0 1.63-.21 2.17-.64.54-.42.82-1.18.82-2.26v-7.2C42.34.37 46.59.88 46.59.88zM1.14 5.66c.31-.98.79-1.83 1.43-2.53.64-.7 1.45-1.26 2.44-1.65C6 1.07 7.16.88 8.5.88h5.97s.48 3.7-2.7 3.7c-3 0-3.27-.05-3.27-.05-1.2 0-2.12.35-2.78 1.04-.66.69-.99 1.79-.99 3.3 0 1.5.33 2.6.99 3.29.65.69 1.58 1.04 2.78 1.04h2.01l1.45-.04c.96.05 2.31 1.1 2.51 3.69H8.5c-1.34 0-2.5-.2-3.49-.59-.99-.39-1.8-.95-2.44-1.65a6.814 6.814 0 01-1.43-2.52c-.32-.97-.47-2.05-.47-3.21 0-1.18.16-2.24.47-3.22zm62.52 3.2c0-1.11.18-2.17.54-3.17.36-1 .9-1.89 1.62-2.66.72-.77 1.62-1.38 2.69-1.83 1.07-.45 2.33-.67 3.77-.67s2.7.22 3.77.67c1.08.45 1.97 1.06 2.69 1.83a7.56 7.56 0 011.62 2.66c.36 1 .54 2.06.54 3.17a9.3 9.3 0 01-.54 3.17c-.36 1-.9 1.89-1.62 2.66-.72.77-1.62 1.38-2.69 1.83-1.07.45-2.33.67-3.77.67s-2.7-.22-3.77-.67c-1.07-.45-1.97-1.06-2.69-1.83a7.56 7.56 0 01-1.62-2.66 9.3 9.3 0 01-.54-3.17zm12.89 0a5.3 5.3 0 00-.28-1.77c-.18-.54-.45-1.01-.8-1.41-.35-.4-.8-.72-1.34-.94-.54-.22-1.15-.33-1.84-.33-.69 0-1.3.11-1.84.33-.54.22-.98.53-1.33.94-.35.4-.62.87-.81 1.41-.18.54-.27 1.13-.27 1.77 0 .64.09 1.23.27 1.77.19.54.45 1.01.81 1.41.35.4.8.72 1.33.94.54.22 1.15.33 1.84.33.69 0 1.3-.11 1.84-.33.54-.22.93-.59 1.34-.94 0 0 1.12-1.05 1.08-3.18zm10.16 7.98L80.66.88h4.6l3.63 10.95s2.47-7.54 2.98-8.99C92.89.12 97.12.88 97.12.88l-6.05 15.97h-4.36zm9.67-7.98c0-1.11.18-2.17.54-3.17.36-1 .9-1.89 1.62-2.66.72-.77 1.62-1.38 2.69-1.83 1.07-.45 2.33-.67 3.77-.67 1.45 0 2.7.22 3.78.67 1.08.45 1.97 1.06 2.69 1.83a7.56 7.56 0 011.62 2.66c.36 1 .54 2.06.54 3.17a9.3 9.3 0 01-.54 3.17c-.36 1-.9 1.89-1.62 2.66-.72.77-1.62 1.38-2.69 1.83-1.07.45-2.33.67-3.78.67-1.44 0-2.7-.22-3.77-.67-1.08-.45-1.97-1.06-2.69-1.83a7.56 7.56 0 01-1.62-2.66 9.3 9.3 0 01-.54-3.17zm12.88 0a5.3 5.3 0 00-.28-1.77c-.18-.54-.45-1.01-.8-1.41-.35-.4-.8-.72-1.33-.94-.54-.22-1.15-.33-1.85-.33-.69 0-1.3.11-1.84.33-.54.22-.98.53-1.34.94-.35.4-.62.87-.8 1.41-.18.54-.28 1.13-.28 1.77 0 .64.09 1.23.28 1.77.18.54.45 1.01.8 1.41.35.4.8.72 1.34.94.54.22 1.15.33 1.84.33.69 0 1.31-.11 1.85-.33.53-.22.98-.53 1.33-.94.35-.4.62-.87.8-1.41a5.3 5.3 0 00.28-1.77z"/><path d="M62.06 5.66c-.34-.98-.85-1.83-1.54-2.53-.69-.7-1.56-1.26-2.63-1.65-1.06-.4-2.31-.59-3.75-.59h-6.42l.03 3.7v8.63s4.17-1.04 4.17-4.49c0-1.52.03-3.29.05-4.18l2.18-.02c1.29 0 2.28.35 2.99 1.04.71.69 1.06 1.79 1.06 3.3 0 1.5-.35 2.6-1.06 3.29-.71.69-1.7 1.04-2.99 1.04h-2.16s-2.57.75-4.26 3.65h6.42c1.44 0 2.69-.2 3.75-.59 1.06-.39 1.93-.95 2.63-1.65.69-.71 1.2-1.55 1.54-2.52.34-.97.51-2.05.51-3.21-.01-1.18-.18-2.24-.52-3.22z" fill="#65ae45"/><linearGradient id="SVGID_1_" gradientUnits="userSpaceOnUse" x1="47.452" y1="15.984" x2="63.084" y2="10.905"><stop offset="0" stop-color="#375a2b" stop-opacity=".62"/><stop offset=".715" stop-color="#65ae45" stop-opacity=".62"/><stop offset=".988" stop-color="#65ae45" stop-opacity=".23"/></linearGradient><path d="M47.73 16.84l6.91-.03s4.23.09 6.41-2.88c0 0 1.2-1.61 1.42-3.63.22-2.02.03-.13.03-.13s-1.77.32-4.31-1.31c0 0 .27 2.45-1.6 3.81 0 0-1.42.83-4.61.52.01 0-2.27.58-4.25 3.65z" fill="url(#SVGID_1_)"/><path class="st0" d="M3.87 24.85c-.1.03-.52.1-1.02.1-.77 0-1.82-.38-1.82-1.97v-.95c0-1.62 1.05-1.97 1.82-1.97.5 0 .92.08 1.02.1.08.03.14.06.14.15v.43c0 .08-.03.13-.13.13h-.01c-.23-.02-.66-.05-1-.05-.54 0-.93.29-.93 1.2v.95c0 .9.39 1.2.93 1.2.34 0 .78-.03 1-.05h.01c.1 0 .13.06.13.14v.43c0 .11-.06.14-.14.16zm2.62.11c-1.06 0-1.84-.59-1.84-2.01v-.87c0-1.42.77-2.01 1.84-2.01s1.83.59 1.83 2.01v.87c0 1.41-.77 2.01-1.83 2.01zm.93-2.88c0-.85-.3-1.23-.93-1.23-.63 0-.93.38-.93 1.23v.87c0 .85.3 1.23.93 1.23.63 0 .93-.38.93-1.23v-.87zm5.76 2.83h-.65c-.06 0-.1-.06-.1-.13v-2.99c0-.04-.01-.06-.02-.06s-.02.02-.03.04L11.76 23c-.04.07-.12.11-.21.11h-.65c-.08 0-.17-.04-.21-.11l-.62-1.23a.187.187 0 00-.03-.04c-.01 0-.02.02-.02.06v2.99c0 .06-.04.13-.1.13h-.65c-.06 0-.11-.03-.11-.1v-4.43c0-.14.12-.26.26-.26h.53c.1 0 .19.06.24.15l.97 1.97c.03.06.05.09.07.09.03 0 .04-.03.07-.09l.97-1.97c.04-.09.14-.15.24-.15h.53c.14 0 .26.12.26.26v4.43c-.01.06-.06.1-.12.1zm2.55-1.79c-.17 0-.43-.02-.57-.03v1.68c0 .07-.05.13-.12.13h-.64c-.07 0-.13-.06-.13-.13v-4.43c0-.13.08-.17.21-.19.33-.05.79-.08 1.26-.08.99 0 1.85.35 1.85 1.49v.06c-.01 1.14-.87 1.5-1.86 1.5zm.96-1.56c0-.54-.32-.75-.97-.75-.14 0-.46.01-.57.03v1.53c.1.01.46.02.57.02.7 0 .97-.26.97-.77v-.06zm4.18 3.31c-.19.05-.75.09-1.09.09-.84 0-1.49-.23-1.49-1.32v-3.39c0-.07.06-.13.13-.13h.64c.07 0 .13.06.13.13v3.39c0 .42.13.55.5.55h1.18c.07 0 .13.06.13.13v.41c0 .09-.03.12-.13.14zm3.46 0c-.21.03-.46.09-1.22.09-.84 0-1.49-.23-1.49-1.32v-2.25c0-1.09.65-1.32 1.49-1.32.77 0 1.02.06 1.22.09.1.01.13.05.13.14v.41c0 .07-.06.13-.13.13h-1.31c-.37 0-.51.13-.51.55v.7h1.75c.07 0 .13.06.13.13v.46c0 .07-.06.13-.13.13H22.5v.83c0 .42.14.55.51.55h1.31c.07 0 .13.06.13.13v.41c.01.09-.03.12-.12.14zm4.45.04h-.76c-.07 0-.12-.05-.17-.13l-.95-1.52-.89 1.52c-.04.08-.1.13-.17.13h-.7c-.07 0-.1-.04-.1-.08 0-.01.01-.03.01-.04l1.37-2.29-1.41-2.25c0-.02-.01-.03-.01-.04 0-.05.04-.08.1-.08h.76c.07 0 .13.06.17.12l.94 1.5.87-1.5c.03-.06.1-.12.17-.12h.7c.06 0 .1.04.1.08 0 .01-.01.03-.01.04l-1.35 2.27 1.42 2.27c.01.02.01.03.01.05 0 .03-.03.07-.1.07zm3.55.05c-.48 0-.83-.04-1.14-.12-.06-.01-.12-.06-.12-.13v-.46c0-.07.06-.12.12-.12h.01c.26.03.9.06 1.14.06.57 0 .75-.21.75-.58 0-.25-.12-.38-.55-.63l-.85-.51c-.6-.35-.76-.73-.76-1.18 0-.71.41-1.22 1.61-1.22.43 0 1.02.06 1.24.12.06.01.12.06.12.12v.48c0 .06-.05.12-.11.12h-.01c-.42-.04-.85-.06-1.27-.06-.48 0-.68.17-.68.46 0 .21.11.34.53.57l.77.43c.71.39.9.8.9 1.31-.01.64-.42 1.34-1.7 1.34zm5.77-4.69l-.98 2.23c-.12.28-.25.41-.39.47v1.8c0 .07-.05.13-.12.13h-.64c-.07 0-.12-.06-.12-.13v-1.8c-.14-.06-.27-.19-.39-.47l-.97-2.23c-.01-.02-.01-.04-.01-.05 0-.05.04-.1.1-.1h.71c.06 0 .1.05.12.1l.77 1.92c.04.11.08.13.11.13s.07-.02.12-.13l.77-1.92c.02-.05.06-.1.12-.1h.7c.06 0 .11.04.11.1 0 .02-.01.03-.01.05zm1.86 4.69c-.48 0-.83-.04-1.14-.12-.06-.01-.12-.06-.12-.13v-.46c0-.07.06-.12.12-.12h.01c.26.03.9.06 1.14.06.57 0 .75-.21.75-.58 0-.25-.12-.38-.55-.63l-.85-.51c-.6-.35-.76-.73-.76-1.18 0-.71.41-1.22 1.61-1.22.43 0 1.02.06 1.24.12.06.01.12.06.12.12v.48c0 .06-.05.12-.11.12h-.01c-.42-.04-.85-.06-1.27-.06-.48 0-.68.17-.68.46 0 .21.11.34.53.57l.77.43c.71.39.9.8.9 1.31-.01.64-.41 1.34-1.7 1.34zm5.42-4.09h-1.13v3.91c0 .07-.06.13-.13.13h-.64c-.07 0-.13-.06-.13-.13v-3.91h-1.13c-.07 0-.13-.04-.13-.12v-.51c0-.07.06-.12.13-.12h3.15c.07 0 .13.05.13.12v.51c.01.07-.05.12-.12.12zm3.49 4c-.21.03-.46.09-1.22.09-.84 0-1.49-.23-1.49-1.32v-2.25c0-1.09.65-1.32 1.49-1.32.77 0 1.02.06 1.22.09.1.01.13.05.13.14v.41c0 .07-.06.13-.13.13h-1.31c-.37 0-.51.13-.51.55v.7h1.75c.07 0 .13.06.13.13v.46c0 .07-.06.13-.13.13h-1.75v.83c0 .42.14.55.51.55h1.31c.07 0 .13.06.13.13v.41c0 .09-.04.12-.13.14zm5.02.04h-.65c-.06 0-.1-.06-.1-.13v-2.99c0-.04-.01-.06-.02-.06s-.02.02-.03.04L52.47 23c-.04.07-.12.11-.21.11h-.65c-.08 0-.17-.04-.21-.11l-.62-1.23a.187.187 0 00-.03-.04c-.01 0-.02.02-.02.06v2.99c0 .06-.04.13-.1.13h-.65c-.06 0-.11-.03-.11-.1v-4.43c0-.14.12-.26.26-.26h.53c.1 0 .19.06.24.15l.97 1.97c.03.06.04.09.07.09s.04-.03.07-.09l.97-1.97c.04-.09.14-.15.24-.15h.53c.14 0 .26.12.26.26v4.43c-.01.06-.06.1-.12.1zm2.28.05c-.48 0-.83-.04-1.14-.12-.06-.01-.12-.06-.12-.13v-.46c0-.07.06-.12.12-.12h.01c.26.03.9.06 1.14.06.57 0 .75-.21.75-.58 0-.25-.12-.38-.55-.63l-.85-.51c-.6-.35-.76-.73-.76-1.18 0-.71.41-1.22 1.61-1.22.43 0 1.02.06 1.24.12.06.01.12.06.12.12v.48c0 .06-.05.12-.11.12h-.01c-.42-.04-.85-.06-1.27-.06-.48 0-.68.17-.68.46 0 .21.11.34.53.57l.77.43c.71.39.9.8.9 1.31-.01.64-.41 1.34-1.7 1.34zm4.84-.05h-.64c-.07 0-.13-.06-.13-.13v-4.53c0-.07.06-.12.13-.12h.64c.07 0 .13.05.13.12v4.53c0 .07-.06.13-.13.13zm5.12 0h-.65c-.06 0-.1-.06-.1-.13v-2.99c0-.04-.01-.06-.02-.06s-.02.02-.03.04L64.71 23c-.04.07-.12.11-.21.11h-.65c-.08 0-.17-.04-.21-.11l-.62-1.23a.187.187 0 00-.03-.04c-.01 0-.02.02-.02.06v2.99c0 .06-.04.13-.1.13h-.65c-.06 0-.11-.03-.11-.1v-4.43c0-.14.12-.26.26-.26h.53c.1 0 .19.06.24.15l.97 1.97c.03.06.04.09.07.09s.04-.03.07-.09l.97-1.97c.04-.09.14-.15.24-.15h.53c.14 0 .26.12.26.26v4.43c-.01.06-.06.1-.12.1zm2.55-1.79c-.17 0-.42-.02-.57-.03v1.68c0 .07-.05.13-.12.13h-.64c-.07 0-.13-.06-.13-.13v-4.43c0-.13.08-.17.21-.19.33-.05.79-.08 1.26-.08.99 0 1.85.35 1.85 1.49v.06c-.01 1.14-.87 1.5-1.86 1.5zm.96-1.56c0-.54-.32-.75-.97-.75-.14 0-.46.01-.57.03v1.53c.1.01.46.02.57.02.7 0 .97-.26.97-.77v-.06zm4.18 3.31c-.19.05-.75.09-1.09.09-.84 0-1.49-.23-1.49-1.32v-3.39c0-.07.06-.13.13-.13h.64c.07 0 .13.06.13.13v3.39c0 .42.13.55.5.55h1.19c.07 0 .13.06.13.13v.41c-.01.09-.04.12-.14.14zm3.46 0c-.21.03-.46.09-1.22.09-.84 0-1.49-.23-1.49-1.32v-2.25c0-1.09.65-1.32 1.49-1.32.77 0 1.02.06 1.22.09.1.01.13.05.13.14v.41c0 .07-.06.13-.13.13h-1.31c-.37 0-.51.13-.51.55v.7h1.75c.07 0 .13.06.13.13v.46c0 .07-.06.13-.13.13h-1.75v.83c0 .42.14.55.51.55h1.31c.07 0 .13.06.13.13v.41c-.01.09-.04.12-.13.14zm5.02.04h-.65c-.06 0-.1-.06-.1-.13v-2.99c0-.04-.01-.06-.02-.06s-.02.02-.03.04L80.88 23c-.04.07-.12.11-.21.11h-.65c-.08 0-.17-.04-.21-.11l-.62-1.23a.187.187 0 00-.03-.04c-.01 0-.02.02-.02.06v2.99c0 .06-.04.13-.1.13h-.65c-.06 0-.11-.03-.11-.1v-4.43c0-.14.12-.26.26-.26h.53c.1 0 .19.06.24.15l.97 1.97c.03.06.04.09.07.09s.04-.03.07-.09l.97-1.97c.04-.09.14-.15.24-.15h.53c.14 0 .26.12.26.26v4.43c-.01.06-.06.1-.12.1zm3.79-.04c-.21.03-.46.09-1.22.09-.84 0-1.49-.23-1.49-1.32v-2.25c0-1.09.65-1.32 1.49-1.32.77 0 1.02.06 1.22.09.1.01.13.05.13.14v.41c0 .07-.06.13-.13.13h-1.31c-.37 0-.51.13-.51.55v.7h1.75c.07 0 .13.06.13.13v.46c0 .07-.06.13-.13.13h-1.75v.83c0 .42.14.55.51.55h1.31c.07 0 .13.06.13.13v.41c-.01.09-.04.12-.13.14zm4.36.04h-.65c-.16 0-.29 0-.39-.23l-1.43-3.14c-.02-.04-.04-.05-.06-.05s-.03.01-.03.05v3.24c0 .07-.05.13-.12.13h-.55c-.07 0-.13-.06-.13-.13v-4.4c0-.14.12-.26.26-.26h.7c.14 0 .21.04.28.21l1.5 3.31c.01.03.03.05.05.05.01 0 .03-.02.03-.06v-3.39c0-.07.05-.12.12-.12h.55c.07 0 .12.05.12.12v4.4c0 .15-.11.27-.25.27zm4.18-4.04H93.5v3.91c0 .07-.06.13-.13.13h-.64c-.07 0-.13-.06-.13-.13v-3.91h-1.13c-.07 0-.13-.04-.13-.12v-.51c0-.07.06-.12.13-.12h3.15c.07 0 .13.05.13.12v.51c.01.07-.05.12-.12.12zm4.21 4.04h-.68c-.06 0-.11-.05-.12-.11l-.3-1.22h-1.48l-.3 1.22c-.01.06-.06.11-.12.11h-.68c-.06 0-.12-.04-.12-.11 0-.01.01-.02.01-.03l1.06-4.04c.16-.6.62-.66.9-.66s.74.06.89.66l1.06 4.04c0 .01.01.03.01.03-.01.06-.07.11-.13.11zm-1.74-3.98c-.02-.08-.04-.1-.1-.1s-.08.03-.1.1l-.46 1.91h1.13l-.47-1.91zm5.42-.06h-1.13v3.91c0 .07-.06.13-.13.13h-.64c-.07 0-.13-.06-.13-.13v-3.91h-1.13c-.07 0-.13-.04-.13-.12v-.51c0-.07.06-.12.13-.12h3.15c.07 0 .13.05.13.12v.51c.01.07-.05.12-.12.12zm1.54 4.04h-.64c-.07 0-.13-.06-.13-.13v-4.53c0-.07.06-.12.13-.12h.64c.07 0 .13.05.13.12v4.53c0 .07-.06.13-.13.13zm2.8.05c-1.06 0-1.83-.59-1.83-2.01v-.87c0-1.42.77-2.01 1.83-2.01s1.83.59 1.83 2.01v.87c0 1.41-.77 2.01-1.83 2.01zm.93-2.88c0-.85-.3-1.23-.93-1.23s-.93.38-.93 1.23v.87c0 .85.3 1.23.93 1.23s.93-.38.93-1.23v-.87zm5.1 2.83h-.65c-.16 0-.29 0-.39-.23l-1.43-3.14c-.02-.04-.04-.05-.06-.05s-.03.01-.03.05v3.24c0 .07-.05.13-.12.13h-.55c-.07 0-.13-.06-.13-.13v-4.4c0-.14.12-.26.26-.26h.7c.14 0 .21.04.28.21l1.5 3.31c.01.03.03.05.05.05.01 0 .03-.02.03-.06v-3.39c0-.07.05-.12.12-.12h.55c.07 0 .12.05.12.12v4.4c.01.15-.1.27-.25.27z"/></svg>